<!-- Generator: Adobe Illustrator 19.0.0, SVG Export Plug-In  -->
<svg version="1.1"
	 xmlns="http://www.w3.org/2000/svg" xmlns:xlink="http://www.w3.org/1999/xlink" xmlns:a="http://ns.adobe.com/AdobeSVGViewerExtensions/3.0/"
	 x="0px" y="0px" width="1139.9px" height="712.3px" viewBox="0 0 1139.9 712.3" style="enable-background:new 0 0 1139.9 712.3;"
	 xml:space="preserve">
<style type="text/css">
	.st0{fill:#F9F6F1;}
	.st1{fill:none;stroke:#1A191A;stroke-miterlimit:10;}
	.st2{fill:none;stroke:#1A191A;stroke-miterlimit:10;stroke-dasharray:5.7206,5.7206;}
	.st3{fill:#1A191A;}
	.st4{fill:none;stroke:#1A191A;stroke-miterlimit:10;stroke-dasharray:5.6622,5.6622;}
</style>
<g>
	<path class="st0" d="M1125.8,712.3H14.2C6.3,712.3,0,706,0,698.2v-684C0,6.3,6.3,0,14.2,0h1111.6c7.8,0,14.2,6.3,14.2,14.2v684
		C1139.9,706,1133.6,712.3,1125.8,712.3z"/>
	<rect x="25.1" y="31" class="st1" width="522.1" height="659.5"/>
	<rect x="25.1" y="31" class="st1" width="123" height="659.5"/>
	<rect x="424.1" y="31" class="st1" width="123" height="659.5"/>
	<rect x="586.1" y="31" class="st1" width="522.1" height="659.5"/>
	<rect x="586.1" y="31" class="st1" width="123" height="659.5"/>
	<rect x="985.1" y="31" class="st1" width="123" height="659.5"/>
	<rect x="148.1" y="31" class="st1" width="276" height="122.3"/>
	<rect x="148.1" y="153.3" class="st1" width="276" height="166.6"/>
	<rect x="148.1" y="319.9" class="st1" width="276" height="166.6"/>
	<rect x="169.7" y="251.7" class="st1" width="232.8" height="37.5"/>
	<rect x="485.7" y="58.1" class="st1" width="40.3" height="83"/>
	<rect x="470.5" y="173.3" class="st1" width="55.5" height="45.9"/>
	<rect x="169.7" y="563.1" class="st1" width="232.8" height="37.5"/>
	<g>
		<path class="st2" d="M131.1,92.2H41.3c-3.1,0-5.7-2.5-5.7-5.7V45.3c0-3.1,2.5-5.7,5.7-5.7h89.8c3.1,0,5.7,2.5,5.7,5.7v41.2
			C136.7,89.6,134.2,92.2,131.1,92.2z"/>
	</g>
	<path class="st1" d="M265.2,551.3h-89.8c-3.1,0-5.7-2.5-5.7-5.7v-25.3c0-3.1,2.5-5.7,5.7-5.7h89.8c3.1,0,5.7,2.5,5.7,5.7v25.3
		C270.8,548.8,268.3,551.3,265.2,551.3z"/>
	<path class="st1" d="M265.2,240.8h-89.8c-3.1,0-5.7-2.5-5.7-5.7v-25.3c0-3.1,2.5-5.7,5.7-5.7h89.8c3.1,0,5.7,2.5,5.7,5.7v25.3
		C270.8,238.2,268.3,240.8,265.2,240.8z"/>
	<path class="st1" d="M472.4,138.6h-23.3c-3.1,0-5.7-2.5-5.7-5.7v-25.3c0-3.1,2.5-5.7,5.7-5.7h23.3c3.1,0,5.7,2.5,5.7,5.7v25.3
		C478.1,136.1,475.5,138.6,472.4,138.6z"/>
	<path class="st1" d="M458.5,219.3h-23.3c-3.1,0-5.7-2.5-5.7-5.7V179c0-3.1,2.5-5.7,5.7-5.7h23.3c3.1,0,5.7,2.5,5.7,5.7v34.6
		C464.2,216.7,461.6,219.3,458.5,219.3z"/>
	<path class="st1" d="M520.3,247.5h-44.2c-3.1,0-5.7-2.5-5.7-5.7v-11.6c0-3.1,2.5-5.7,5.7-5.7h44.2c3.1,0,5.7,2.5,5.7,5.7v11.6
		C526,244.9,523.5,247.5,520.3,247.5z"/>
	<path class="st1" d="M131.1,211.4H41.3c-3.1,0-5.7-2.5-5.7-5.7v-102c0-3.1,2.5-5.7,5.7-5.7h89.8c3.1,0,5.7,2.5,5.7,5.7v102
		C136.7,208.9,134.2,211.4,131.1,211.4z"/>
	<text transform="matrix(1 0 0 1 51.1721 162.5211)" class="st3" style="font-family:'OpenSans'; font-size:28.3465px;">L.009</text>
	<text transform="matrix(1 0 0 1 51.1721 76.812)" class="st3" style="font-family:'OpenSans'; font-size:28.3465px;">L.023</text>
	<text transform="matrix(1 0 0 1 184.8501 231.411)" class="st3" style="font-family:'OpenSans'; font-size:28.3465px;">L.014</text>
	<path class="st1" d="M692.5,222.5h-89.8c-3.1,0-5.7-2.5-5.7-5.7v-25.3c0-3.1,2.5-5.7,5.7-5.7h89.8c3.1,0,5.7,2.5,5.7,5.7v25.3
		C698.1,219.9,695.6,222.5,692.5,222.5z"/>
	<text transform="matrix(1 0 0 1 612.1437 213.1029)" class="st3" style="font-family:'OpenSans'; font-size:28.3465px;">L.016</text>
	<path class="st1" d="M836,105.5h-89.8c-3.1,0-5.7-2.5-5.7-5.7V74.5c0-3.1,2.5-5.7,5.7-5.7H836c3.1,0,5.7,2.5,5.7,5.7v25.3
		C841.6,102.9,839.1,105.5,836,105.5z"/>
	<text transform="matrix(1 0 0 1 755.6505 96.0859)" class="st3" style="font-family:'OpenSans'; font-size:28.3465px;">L.015</text>
	<text transform="matrix(1 0 0 1 442.8387 126.6047)" class="st3" style="font-family:'OpenSans-Semibold'; font-size:14.1732px;">L.012</text>
	<text transform="matrix(1 0 0 1 428.9561 200.7102)" class="st3" style="font-family:'OpenSans-Semibold'; font-size:14.1732px;">L.020</text>
	<text transform="matrix(1 0 0 1 480.3026 240.7809)" class="st3" style="font-family:'OpenSans-Semibold'; font-size:14.1732px;">L.018</text>
	<text transform="matrix(1 0 0 1 184.8501 541.8954)" class="st3" style="font-family:'OpenSans'; font-size:28.3465px;">L.017</text>
	<rect x="740.5" y="117.4" class="st1" width="213" height="150.7"/>
	<rect x="605.5" y="241.9" class="st1" width="84" height="142.1"/>
	<path class="st1" d="M1073.3,171.5h-44.2c-3.1,0-5.7-2.5-5.7-5.7v-11.6c0-3.1,2.5-5.7,5.7-5.7h44.2c3.1,0,5.7,2.5,5.7,5.7v11.6
		C1079,169,1076.5,171.5,1073.3,171.5z"/>
	<text transform="matrix(1 0 0 1 1033.3026 164.8294)" class="st3" style="font-family:'OpenSans-Semibold'; font-size:14.1732px;">L.022</text>
	<g>
		<path class="st4" d="M1090.7,63.4h-44.2c-3.1,0-5.7-2.5-5.7-5.7V46.1c0-3.1,2.5-5.7,5.7-5.7h44.2c3.1,0,5.7,2.5,5.7,5.7v11.6
			C1096.4,60.9,1093.8,63.4,1090.7,63.4z"/>
	</g>
	<text transform="matrix(1 0 0 1 1050.6885 56.7713)" class="st3" style="font-family:'OpenSans-Semibold'; font-size:14.1732px;">L.024</text>
	<text transform="matrix(1 0 0 1 1050.6888 81.7713)" class="st3" style="font-family:'OpenSans-Semibold'; font-size:14.1732px;">L.025</text>
</g>
</svg>
