<!-- Generator: Adobe Illustrator 19.0.0, SVG Export Plug-In  -->
<svg version="1.1"
	 xmlns="http://www.w3.org/2000/svg" xmlns:xlink="http://www.w3.org/1999/xlink" xmlns:a="http://ns.adobe.com/AdobeSVGViewerExtensions/3.0/"
	 x="0px" y="0px" width="747.2px" height="897.1px" viewBox="0 0 747.2 897.1" style="enable-background:new 0 0 747.2 897.1;"
	 xml:space="preserve">
<style type="text/css">
	.st0{fill:#F9F6F1;}
	.st1{fill:none;stroke:#1A191A;stroke-miterlimit:10;}
	.st2{fill:none;stroke:#1A191A;stroke-width:0.6099;stroke-miterlimit:10;}
</style>
<defs>
</defs>
<g>
	<path class="st0" d="M733,897.1H14.2C6.3,897.1,0,890.8,0,883V14.2C0,6.3,6.3,0,14.2,0H733c7.8,0,14.2,6.3,14.2,14.2V883
		C747.2,890.8,740.9,897.1,733,897.1z"/>
	<polyline class="st1" points="143.1,761.2 143.1,293.4 613.1,293.4 613.1,857.8 357.1,857.8 	"/>
	<rect x="143.1" y="293.4" class="st1" width="470" height="106.1"/>
	<rect x="211.1" y="311.4" class="st1" width="85" height="63.1"/>
	<rect x="573.1" y="304.3" class="st1" width="29" height="85"/>
	<path class="st1" d="M420.2,468.6H336c-54.6,0-98.9,44.3-98.9,98.9v84.2c0,54.6,44.3,98.9,98.9,98.9h84.2
		c54.6,0,98.9-44.3,98.9-98.9v-84.2C519.1,512.8,474.8,468.6,420.2,468.6z"/>
	<circle class="st1" cx="378.1" cy="609.6" r="110"/>
	<path class="st1" d="M466.7,383.4h86.7c3.1,0,5.7-2.5,5.7-5.7v-60.6c0-3.1-2.5-5.7-5.7-5.7h-86.7c-3.1,0-5.7,2.5-5.7,5.7v60.6
		C461.1,380.8,463.6,383.4,466.7,383.4z"/>
	<path class="st1" d="M210.7,215.1h86.7c3.1,0,5.7-2.5,5.7-5.7v-60.6c0-3.1-2.5-5.7-5.7-5.7h-86.7c-3.1,0-5.7,2.5-5.7,5.7v60.6
		C205.1,212.6,207.6,215.1,210.7,215.1z"/>
	<path class="st1" d="M503.7,464.5h86.7c3.1,0,5.7-2.5,5.7-5.7v-31.9c0-3.1-2.5-5.7-5.7-5.7h-86.7c-3.1,0-5.7,2.5-5.7,5.7v31.9
		C498.1,461.9,500.6,464.5,503.7,464.5z"/>
	<path class="st2" d="M193.7,847.3h75.7c3.1,0,5.7-2.5,5.7-5.7v-6.8c0-3.1-2.5-5.7-5.7-5.7h-75.7c-3.1,0-5.7,2.5-5.7,5.7v6.8
		C188.1,844.7,190.6,847.3,193.7,847.3z"/>
	<path class="st1" d="M213.9,291.1h83.6c1.6,0,2.8-1.3,2.8-2.8v-8.5c0-1.6-1.3-2.8-2.8-2.8h-83.6c-1.6,0-2.8,1.3-2.8,2.8v8.5
		C211.1,289.8,212.3,291.1,213.9,291.1z"/>
	<rect x="143.1" y="274.6" class="st1" width="470" height="18.8"/>
	<polyline class="st1" points="349.1,848.3 159.1,848.3 159.1,828.1 327.1,828.1 	"/>
	<path class="st1" d="M107.6,765.2c24.5-6.1,51-3.7,74,6.8c15.1,6.9,28.5,17,43.7,23.7s33.4,9.6,47.9,1.6c3.5-1.9,7.1-4.5,11-3.9
		c2.7,0.4,5,2.2,7.1,4c25.3,21.3,50.7,42.8,70.9,68.9"/>
	<polyline class="st1" points="159.1,764.5 159.1,828.1 183.1,828.1 181.6,772 	"/>
	<polyline class="st2" points="143.1,260.2 143.1,32.5 143.1,20.2 613.1,20.2 613.1,260.2 	"/>
	<line class="st2" x1="613.1" y1="32.5" x2="143.1" y2="32.5"/>
	<text transform="matrix(1 0 0 1 476.6265 358.8029)" style="font-family:'OpenSans'; font-size:28.3465px;">L.001</text>
	<text transform="matrix(1 0 0 1 624.6698 296.4411)" style="font-family:'OpenSans'; font-size:28.3465px;">&lt; L.003r</text>
	<text transform="matrix(1 0 0 1 22.8711 293.4404)" style="font-family:'OpenSans'; font-size:28.3465px;">L.003l &gt;</text>
	<text transform="matrix(1 0 0 1 511.627 454.1599)" style="font-family:'OpenSans'; font-size:28.3465px;">L.002</text>
	<text transform="matrix(1 0 0 1 220.2734 353.7191)" style="font-family:'OpenSans'; font-size:28.3465px;">L.004</text>
	<text transform="matrix(1 0 0 1 218.127 187.7191)" style="font-family:'OpenSans'; font-size:28.3465px;">L.006</text>
	<text transform="matrix(1 0 0 1 218.127 267.7191)" style="font-family:'OpenSans'; font-size:28.3465px;">L.005</text>
	<text transform="matrix(1 0 0 1 196.1274 873.25)" style="font-family:'OpenSans'; font-size:28.3465px;">L.007</text>
</g>
</svg>
