<!-- Generator: Adobe Illustrator 19.0.0, SVG Export Plug-In  -->
<svg version="1.1"
	 xmlns="http://www.w3.org/2000/svg" xmlns:xlink="http://www.w3.org/1999/xlink" xmlns:a="http://ns.adobe.com/AdobeSVGViewerExtensions/3.0/"
	 x="0px" y="0px" width="900.9px" height="806px" viewBox="0 0 900.9 806" style="enable-background:new 0 0 900.9 806;"
	 xml:space="preserve">
<style type="text/css">
	.st0{fill:#F9F6F1;}
	.st1{fill:none;stroke:#1A191A;stroke-miterlimit:10;}
	.st2{fill:none;stroke:#1A191A;stroke-miterlimit:10;stroke-dasharray:5.6376,5.6376;}
	.st3{fill:none;stroke:#000000;stroke-miterlimit:10;}
</style>
<defs>
</defs>
<g>
	<rect class="st0" width="900.9" height="806"/>
	<rect x="25.1" y="29.2" class="st1" width="722" height="752.7"/>
	<rect x="25.1" y="29.2" class="st1" width="136" height="752.7"/>
	<rect x="611.1" y="29.7" class="st1" width="136" height="752.7"/>
	<rect x="161.1" y="29.2" class="st1" width="450" height="131.6"/>
	<rect x="161.1" y="562.1" class="st1" width="450" height="220.2"/>
	<circle class="st1" cx="386.1" cy="370.1" r="165.6"/>
	<path class="st1" d="M143.4,206.7H46.8c-3.1,0-5.7-2.5-5.7-5.7V58.5c0-3.1,2.5-5.7,5.7-5.7h96.7c3.1,0,5.7,2.5,5.7,5.7V201
		C149.1,204.1,146.6,206.7,143.4,206.7z"/>
	<text transform="matrix(1 0 0 1 57.6601 142.4455)" style="font-family:'OpenSans'; font-size:28.3465px;">L.009</text>
	<g>
		<path class="st2" d="M143.4,269.3H46.8c-3.1,0-5.7-2.5-5.7-5.7v-37.8c0-3.1,2.5-5.7,5.7-5.7h96.7c3.1,0,5.7,2.5,5.7,5.7v37.8
			C149.1,266.7,146.6,269.3,143.4,269.3z"/>
	</g>
	<text transform="matrix(1 0 0 1 59.66 255.3156)" style="font-family:'OpenSans'; font-size:28.3465px;">L.026</text>
	<text transform="matrix(1 0 0 1 647.5849 223.0156)" style="font-family:'OpenSans'; font-size:25.5118px;">L.004</text>
	<text transform="matrix(1 0 0 1 774.9775 160.7917)" style="font-family:'OpenSans'; font-size:25.5118px;">&lt; L.015</text>
	<text transform="matrix(1 0 0 1 633.4932 120.0453)" style="font-family:'OpenSans'; font-size:19.8425px;">L.012</text>
	<text transform="matrix(1 0 0 1 668.8929 343.6523)" style="font-family:'OpenSans'; font-size:19.8425px;">L.018</text>
	<rect x="687.1" y="52.9" class="st3" width="42" height="89.6"/>
	<rect x="694.9" y="62.5" class="st3" width="26.5" height="70.4"/>
	<rect x="634.7" y="175.5" class="st3" width="94.4" height="138.3"/>
	<rect x="644.1" y="185.3" class="st3" width="74.8" height="50"/>
	<path class="st3" d="M640.4,90.9h35.9c3.1,0,5.7,2.6,5.7,5.7v40.2c0,3.1-2.6,5.7-5.7,5.7h-35.9c-3.1,0-5.7-2.6-5.7-5.7V96.5
		C634.7,93.4,637.3,90.9,640.4,90.9z"/>
	<path class="st3" d="M664,320.4h59.5c3.1,0,5.7,2.6,5.7,5.7v19.3c0,3.1-2.6,5.7-5.7,5.7H664c-3.1,0-5.7-2.6-5.7-5.7v-19.3
		C658.3,323,660.9,320.4,664,320.4z"/>
	<rect x="747.1" y="103.7" class="st1" width="11" height="190.9"/>
</g>
</svg>
