<?xml version="1.0" encoding="utf-8"?>
<!-- Generator: Adobe Illustrator 18.1.1, SVG Export Plug-In . SVG Version: 6.00 Build 0)  -->
<!DOCTYPE svg PUBLIC "-//W3C//DTD SVG 1.1//EN" "http://www.w3.org/Graphics/SVG/1.1/DTD/svg11.dtd">
<svg version="1.1" id="Layer_1" xmlns="http://www.w3.org/2000/svg" xmlns:xlink="http://www.w3.org/1999/xlink" x="0px" y="0px"
	 width="240px" height="240px" viewBox="0 0 240 240" style="enable-background:new 0 0 240 240;" xml:space="preserve">
<style type="text/css">
	.st0{fill:#F9F6F1;}
	.st1{fill:#005E9F;}
</style>
<g>
	<circle class="st0" cx="120.7" cy="119.9" r="113.4"/>
	<path class="st1" d="M120.7,6.5C58.2,6.5,7.3,57.4,7.3,119.9c0,62.5,50.9,113.4,113.4,113.4s113.4-50.9,113.4-113.4
		C234.1,57.4,183.2,6.5,120.7,6.5z M82.2,88.5c-14.1,0-25.5-11.5-25.5-25.5c0-14.1,11.5-25.6,25.5-25.6c14.1,0,25.6,11.5,25.6,25.6
		C107.7,77,96.3,88.5,82.2,88.5z M140.2,179.1l-31.6-39.8l-2.5,1.9l7.8,10.5l1.9,63.7c-27.8-1.4-53.6-14.9-70.7-37l4.3-84.6h62.9
		l35.2,57.2l39.4-35.5l10.2,11.1l-43.5,52.6H140.2z M174.2,93.7l29.3-5.9l-10.9,29.6l-5.4-5.9l-9.6,8.3l-11.7,1.9L174.2,93.7z
		 M171.3,93.3l-8.3,28.2l-22.9-14l11.8-30.7L171.3,93.3z M146.6,84.7l-9.5,24.2l18.3,10.8l-21.7-7.3L144.7,84L146.6,84.7z
		 M130.8,113.7l4.4,1.4l-4.6,3.7l-5.2-7.8l5.6-3.5l1.5,1.4L130.8,113.7z"/>
</g>
</svg>
