<!-- Generator: Adobe Illustrator 19.0.0, SVG Export Plug-In  -->
<svg version="1.1"
	 xmlns="http://www.w3.org/2000/svg" xmlns:xlink="http://www.w3.org/1999/xlink" xmlns:a="http://ns.adobe.com/AdobeSVGViewerExtensions/3.0/"
	 x="0px" y="0px" width="245.3px" height="212.5px" viewBox="0 0 245.3 212.5" style="enable-background:new 0 0 245.3 212.5;"
	 xml:space="preserve">
<style type="text/css">
	.st0{fill:#F0C307;}
	.st1{fill:#1A191A;}
</style>
<defs>
</defs>
<g>
	<polyline class="st0" points="122.7,32.4 217.3,196.3 28.1,196.3 122.7,32.4 	"/>
	<path class="st1" d="M122.7,32.4l94.6,163.9H28.1L122.7,32.4 M122.7,0l-14,24.3L14,188.2L0,212.5h28.1h189.2h28.1l-14-24.3
		L136.7,24.3L122.7,0L122.7,0z"/>
	<path class="st1" d="M153.8,124.1c0-7.7-8.3-32.6-11.5-45.2c-3.7,2.5-3.8,6.5-4.4,9.4C132.3,78,127,64.6,125.3,55.4
		c-21,19.9-33.7,51.5-33.7,68.7c0,10.9,5.6,20.5,14.1,26c-3.8,4.1-6.1,9.6-6.1,15.6c0,12.8,10.3,23.1,23.1,23.1
		c12.8,0,23.1-10.3,23.1-23.1c0-6-2.3-11.5-6.1-15.6C148.2,144.6,153.8,135,153.8,124.1z M102.3,131c0-10.5,7.8-29.9,20.6-42
		c1.1,5.6,4.3,13.8,7.7,20.1c0.4-1.7,0.5-4.2,2.7-5.7c2,7.7,7,22.9,7,27.6c0,5.8-2.6,11-6.7,14.5c-3.3-1.8-7-2.8-11-2.8
		c-4.6,0-8.9,1.3-12.5,3.7C105.4,142.9,102.3,137.3,102.3,131z M141.5,165.8c0,10.4-8.4,18.9-18.9,18.9s-18.9-8.4-18.9-18.9
		s8.4-18.9,18.9-18.9S141.5,155.4,141.5,165.8z"/>
</g>
</svg>
