<!-- Generator: Adobe Illustrator 19.0.0, SVG Export Plug-In  -->
<svg version="1.1"
	 xmlns="http://www.w3.org/2000/svg" xmlns:xlink="http://www.w3.org/1999/xlink" xmlns:a="http://ns.adobe.com/AdobeSVGViewerExtensions/3.0/"
	 x="0px" y="0px" width="245.3px" height="212.5px" viewBox="0 0 245.3 212.5" style="enable-background:new 0 0 245.3 212.5;"
	 xml:space="preserve">
<style type="text/css">
	.st0{fill:#F0C307;}
	.st1{fill:#1A191A;}
</style>
<defs>
</defs>
<g>
	<polyline class="st0" points="122.7,32.4 217.3,196.3 28.1,196.3 122.7,32.4 	"/>
	<path class="st1" d="M122.7,32.4l94.6,163.9H28.1L122.7,32.4 M122.7,0l-14,24.3L14,188.2L0,212.5h28.1h189.2h28.1l-14-24.3
		L136.7,24.3L122.7,0L122.7,0z"/>
	<path class="st1" d="M158.3,124.6c0-10.2,0-21.1,0-21.1H140l-9.1,25.3l-8-4.5l-14.5,13.9l11.3-20.3h8.5l1.4-14.4H87
		c0,0,0,10.9,0,21.1s31.4,28,31.4,28l0.7,29.9l-28.2,6.8h31.5h0.6h31.5l-28.2-6.8l0.7-29.9C126.9,152.5,158.3,134.7,158.3,124.6z"/>
</g>
</svg>
