<!-- Generator: Adobe Illustrator 19.0.0, SVG Export Plug-In  -->
<svg version="1.1"
	 xmlns="http://www.w3.org/2000/svg" xmlns:xlink="http://www.w3.org/1999/xlink" xmlns:a="http://ns.adobe.com/AdobeSVGViewerExtensions/3.0/"
	 x="0px" y="0px" width="245.3px" height="212.5px" viewBox="0 0 245.3 212.5" style="enable-background:new 0 0 245.3 212.5;"
	 xml:space="preserve">
<style type="text/css">
	.st0{fill:#F0C307;}
	.st1{fill:#1A191A;}
</style>
<defs>
</defs>
<g>
	<polyline class="st0" points="122.7,32.4 217.3,196.3 28.1,196.3 122.7,32.4 	"/>
	<path class="st1" d="M153.8,129.9c0-7.7-8.3-32.6-11.5-45.2c-3.7,2.5-3.8,6.5-4.4,9.4c-5.5-10.3-10.8-23.8-12.6-32.9
		c-21,19.9-33.7,51.5-33.7,68.7c0,11.7,6.4,21.8,15.9,27.1c-3.2,3.6-5.2,8.3-5.2,13.5c0,11.2,9.1,20.4,20.4,20.4
		c11.2,0,20.4-9.1,20.4-20.4c0-5.2-2-9.9-5.2-13.5C147.4,151.7,153.8,141.5,153.8,129.9z M121.3,155.7c-10.5,0-19-8.5-19-19
		c0-10.5,7.8-29.9,20.6-42c1.1,5.6,4.3,13.8,7.7,20.1c0.4-1.7,0.5-4.2,2.7-5.7c2,7.7,7,22.9,7,27.6
		C140.4,147.2,131.8,155.7,121.3,155.7z"/>
	<path class="st1" d="M122.7,32.4l94.6,163.9H28.1L122.7,32.4 M122.7,0l-14,24.3L14,188.2L0,212.5h28.1h189.2h28.1l-14-24.3
		L136.7,24.3L122.7,0L122.7,0z"/>
</g>
</svg>
