<!-- Generator: Adobe Illustrator 19.0.0, SVG Export Plug-In  -->
<svg version="1.1"
	 xmlns="http://www.w3.org/2000/svg" xmlns:xlink="http://www.w3.org/1999/xlink" xmlns:a="http://ns.adobe.com/AdobeSVGViewerExtensions/3.0/"
	 x="0px" y="0px" width="245.3px" height="212.5px" viewBox="0 0 245.3 212.5" style="enable-background:new 0 0 245.3 212.5;"
	 xml:space="preserve">
<style type="text/css">
	.st0{fill:#F0C307;}
	.st1{fill:#1A191A;}
</style>
<defs>
</defs>
<g>
	<polyline class="st0" points="122.7,32.4 217.3,196.3 28.1,196.3 122.7,32.4 	"/>
	<path class="st1" d="M122.7,32.4l94.6,163.9H28.1L122.7,32.4 M122.7,0l-14,24.3L14,188.2L0,212.5h28.1h189.2h28.1l-14-24.3
		L136.7,24.3L122.7,0L122.7,0z"/>
	<g>
		<polygon class="st1" points="140.9,50 77,167.9 147.1,62.9 		"/>
		<path class="st1" d="M77,145.1c-12.6,0-22.9,10.2-22.9,22.9c0,12.6,10.2,22.9,22.9,22.9c7.6,0,14.4-3.8,18.6-9.5L77,167.9
			l9.2-20.9C83.4,145.7,80.3,145.1,77,145.1z"/>
		<path class="st1" d="M95.5,181.3l32.6,23.4h36L77,167.9L95.7,181C95.7,181.1,95.6,181.2,95.5,181.3z"/>
		<path class="st1" d="M223.1,201.6l-53.3-12.3l7.1-3l-9.8-7.4l51.4,6.2l-7.7-11.8l-90.1-3.6l-0.2-1.8l-2.2,1.7L77,167.9l37.4,4.5
			l-3.6,2.7l2.8,1.2L77,167.9l109.7,39.3L223.1,201.6z M121.2,173.3l42.7,5.2l-1.2,9.2l-40.9-9.4L121.2,173.3z"/>
		<polygon class="st1" points="117.8,154.7 117.4,153 183.6,128.6 181,119.5 146.4,135.6 141.5,127.1 135.1,138.1 141.1,138.1
			116.5,149.5 115,143.2 171.8,106.2 169.2,100.9 77,167.9 104.7,149.9 104,150.6 110.2,152.4 77,167.9 115.1,153.9 		"/>
		<polygon class="st1" points="141.5,167.9 140.6,163.3 202.1,158.9 191.3,138.9 138.5,152.3 137.7,147.8 129.8,154.5 77,167.9
			130.5,164.1 		"/>
		<polygon class="st1" points="150.1,114.8 154,100 144.4,102.5 161,86.5 151.7,71.1 77,167.9 141.1,105.8 		"/>
	</g>
</g>
</svg>
