<!-- Generator: Adobe Illustrator 19.0.0, SVG Export Plug-In  -->
<svg version="1.1"
	 xmlns="http://www.w3.org/2000/svg" xmlns:xlink="http://www.w3.org/1999/xlink" xmlns:a="http://ns.adobe.com/AdobeSVGViewerExtensions/3.0/"
	 x="0px" y="0px" width="245.3px" height="212.5px" viewBox="0 0 245.3 212.5" style="enable-background:new 0 0 245.3 212.5;"
	 xml:space="preserve">
<style type="text/css">
	.st0{fill:#1A191A;}
	.st1{fill:#F0C307;}
</style>
<defs>
</defs>
<g>
	<path class="st0" d="M122.7,32.4l94.6,163.9H28.1L122.7,32.4 M122.7,0l-14,24.3L14,188.2L0,212.5h28.1h189.2h28.1l-14-24.3
		L136.7,24.3L122.7,0L122.7,0z"/>
	<polyline class="st1" points="122.7,32.4 217.3,196.3 28.1,196.3 122.7,32.4 	"/>
	<path class="st0" d="M62.8,118.8l33,11.1l16.4,5.1l22.7,5.3l23.3,9.1l12,14.3l-1.8,4.6l-7.1-3.2l-8.7-8.2l-24.1-5.9l-11.5,1.2
		l-6.5,11.1l-0.1,14.9l-6.5,9.8l-5.3-2.1l4.8-12.2l-2.7-9.9l-8.3-4.6l-5.6-9.2l-27.3,9.1L37,150.5l18.6-22.2L62.8,118.8z
		 M157.4,147.7l5.6-0.2l9.3,4l4.7-2.8l-5.2-5.3l-15.3-6l-20,2.2L157.4,147.7z M155.7,136.1l6.3,2.2l11.7,3l3.4-4.3l-10.4-5.4
		l-13-0.8l-17.7,7.5L155.7,136.1z M125.8,154.1l-27.2,55.3l61.5-4.1L125.8,154.1z M124.3,134.5l27.2-55.3L90,83.3L124.3,134.5z"/>
</g>
</svg>
