<!-- Generator: Adobe Illustrator 19.0.0, SVG Export Plug-In  -->
<svg version="1.1"
	 xmlns="http://www.w3.org/2000/svg" xmlns:xlink="http://www.w3.org/1999/xlink" xmlns:a="http://ns.adobe.com/AdobeSVGViewerExtensions/3.0/"
	 x="0px" y="0px" width="245.3px" height="212.5px" viewBox="0 0 245.3 212.5" style="enable-background:new 0 0 245.3 212.5;"
	 xml:space="preserve">
<style type="text/css">
	.st0{fill:#F0C307;}
	.st1{fill:#1A191A;}
</style>
<defs>
</defs>
<g>
	<polyline class="st0" points="122.7,32.4 217.3,196.3 28.1,196.3 122.7,32.4 	"/>
	<path class="st1" d="M122.7,32.4l94.6,163.9H28.1L122.7,32.4 M122.7,0l-14,24.3L14,188.2L0,212.5h28.1h189.2h28.1l-14-24.3
		L136.7,24.3L122.7,0L122.7,0z"/>
	<path class="st1" d="M182.4,163.2c-2.1-13-11.4-23.1-23.1-26.9l3.2-0.3l-0.7-8.5l-8.1,0.2c5.2-3.3,8.2-9.4,7.1-15.9
		c-1.4-8.6-9.5-14.5-18.1-13.1c-8.6,1.4-14.5,9.5-13.1,18.1c0.8,5,3.8,9,7.9,11.3l-31.7,0.9c4.9-4.1,7.2-10.9,5.2-17.4
		c-2.6-8.8-11.9-13.9-20.7-11.3c-8.8,2.6-13.9,11.9-11.3,20.7c1.7,5.7,6.1,9.8,11.4,11.3l-14.1,11.2l-42.1,21.6l-13.3,43.4l30.9-7.2
		l41.3-27.5l19.2-33.2l20.5-1.9c-12.3,6.7-19.7,20.6-17.4,35.2c3,18.5,20.4,31.1,38.9,28.1C172.8,199.1,185.4,181.7,182.4,163.2z
		 M144.1,107.9c3.6-0.6,7,1.9,7.6,5.5c0.6,3.6-1.9,7-5.5,7.6c-3.6,0.6-7-1.9-7.6-5.5C138,111.9,140.5,108.5,144.1,107.9z M152.9,193
		c-13.5,2.2-26.2-7-28.3-20.5c-2.2-13.5,7-26.2,20.5-28.3c13.5-2.2,26.2,7,28.3,20.5C175.5,178.2,166.3,190.9,152.9,193z"/>
</g>
</svg>
