<!-- Generator: Adobe Illustrator 19.0.0, SVG Export Plug-In  -->
<svg version="1.1"
	 xmlns="http://www.w3.org/2000/svg" xmlns:xlink="http://www.w3.org/1999/xlink" xmlns:a="http://ns.adobe.com/AdobeSVGViewerExtensions/3.0/"
	 x="0px" y="0px" width="226.8px" height="226.8px" viewBox="0 0 226.8 226.8" style="enable-background:new 0 0 226.8 226.8;"
	 xml:space="preserve">
<style type="text/css">
	.st0{fill:#F9F6F1;}
	.st1{fill:#005E9F;}
</style>
<defs>
</defs>
<g>
	<path class="st0" d="M113.4,226.8C50.9,226.8,0,175.9,0,113.4S50.9,0,113.4,0c62.5,0,113.4,50.9,113.4,113.4
		S175.9,226.8,113.4,226.8z"/>
	<path class="st1" d="M114.7,0.2C52.2-0.5,0.9,49.6,0.2,112.1c-0.7,62.5,49.4,113.8,111.9,114.5c62.5,0.7,113.8-49.4,114.5-111.9
		C227.3,52.2,177.2,0.9,114.7,0.2z M155.5,179.7H71.3V162h84.2V179.7z M172.1,151H54.6v-17.7h117.5V151z M191.6,122.3H35.2v-17.7
		h69.3V32.4h17.7v72.1h69.3V122.3z"/>
</g>
</svg>
