<!-- Generator: Adobe Illustrator 19.0.0, SVG Export Plug-In  -->
<svg version="1.1"
	 xmlns="http://www.w3.org/2000/svg" xmlns:xlink="http://www.w3.org/1999/xlink" xmlns:a="http://ns.adobe.com/AdobeSVGViewerExtensions/3.0/"
	 x="0px" y="0px" width="226.8px" height="226.8px" viewBox="0 0 226.8 226.8" style="enable-background:new 0 0 226.8 226.8;"
	 xml:space="preserve">
<style type="text/css">
	.st0{fill:#F9F6F1;}
	.st1{fill:#005E9F;}
</style>
<defs>
</defs>
<g>
	<circle class="st0" cx="113.4" cy="113.4" r="112.7"/>
	<path class="st1" d="M113.4,0C50.9,0,0,50.9,0,113.4c0,62.5,50.9,113.4,113.4,113.4s113.4-50.9,113.4-113.4
		C226.8,50.9,175.9,0,113.4,0z M186.3,77c-4.6,12.7-17.7,19.9-30.6,17.4l-58.5,60c1.8,5.5,1.8,11.6-0.3,17.4
		c-3,8.4-9.8,14.4-17.8,16.8l5.3-14.8l-11.9-14.1L54.4,163l-5.3,14.8c-4.7-6.9-6.1-15.9-3.1-24.3c4.4-12.2,16.7-19.3,29.1-17.7
		l59.6-61.1c-1.3-5.1-1.2-10.7,0.7-16c3-8.4,9.8-14.4,17.8-16.8l-5.3,14.8l11.9,14.1l18.1-3.3l5.3-14.8
		C187.9,59.6,189.3,68.6,186.3,77z"/>
</g>
</svg>
