<!-- Generator: Adobe Illustrator 19.0.0, SVG Export Plug-In  -->
<svg version="1.1"
	 xmlns="http://www.w3.org/2000/svg" xmlns:xlink="http://www.w3.org/1999/xlink" xmlns:a="http://ns.adobe.com/AdobeSVGViewerExtensions/3.0/"
	 x="0px" y="0px" width="226.8px" height="226.6px" viewBox="0 0 226.8 226.6" style="enable-background:new 0 0 226.8 226.6;"
	 xml:space="preserve">
<style type="text/css">
	.st0{fill:#F9F6F1;}
	.st1{fill:#005E9F;}
</style>
<defs>
</defs>
<g>
	<ellipse class="st0" cx="113.4" cy="113.3" rx="113.4" ry="113.3"/>
	<path class="st1" d="M113.4,0.1C51,0.1,0.2,50.9,0.2,113.3c0,62.4,50.8,113.2,113.2,113.2s113.2-50.8,113.2-113.2
		C226.6,50.9,175.8,0.1,113.4,0.1z M163.5,200.8l-45.2-77.6L88.1,149c-1.9,1.6-4.8,1.4-6.4-0.5h0c-1.6-1.9-1.4-4.8,0.5-6.4
		l31.5-26.8l-4.2-7.2l-32.6,23c-2,1.4-4.9,1-6.3-1.1c-1.4-2-1-4.9,1.1-6.3l33.2-23.5l-4.3-7.4l-34.7,20.2c-2.2,1.3-4.9,0.5-6.2-1.6
		v0c-1.3-2.2-0.5-4.9,1.6-6.2L96,85l-4.3-7.4L54.9,94.9c-2.3,1.1-5,0.1-6-2.2v0c-1.1-2.3-0.1-5,2.2-6l36.1-17l-4.2-7.3L44.1,76.7
		c-2.4,0.9-5-0.3-5.8-2.7l0,0c-0.9-2.4,0.3-5,2.7-5.8l37.3-13.7l-1.6-2.8c-1.4-2.4-0.6-5.4,1.8-6.8l5.4-3.1c2.4-1.4,5.4-0.6,6.8,1.8
		l87,149.2L163.5,200.8z"/>
</g>
</svg>
