<!-- Generator: Adobe Illustrator 19.0.0, SVG Export Plug-In  -->
<svg version="1.1"
	 xmlns="http://www.w3.org/2000/svg" xmlns:xlink="http://www.w3.org/1999/xlink" xmlns:a="http://ns.adobe.com/AdobeSVGViewerExtensions/3.0/"
	 x="0px" y="0px" width="226.8px" height="226.8px" viewBox="0 0 226.8 226.8" style="enable-background:new 0 0 226.8 226.8;"
	 xml:space="preserve">
<style type="text/css">
	.st0{fill:#F9F6F1;}
	.st1{fill:#005E9F;}
</style>
<defs>
</defs>
<g>
	<circle class="st0" cx="113.4" cy="113.4" r="113.4"/>
	<path class="st1" d="M113.4,0C50.9,0,0,50.9,0,113.4c0,62.5,50.9,113.4,113.4,113.4s113.4-50.9,113.4-113.4
		C226.8,50.9,175.9,0,113.4,0z M74.9,82c-14.1,0-25.5-11.5-25.5-25.5c0-14.1,11.5-25.6,25.5-25.6c14.1,0,25.6,11.5,25.6,25.6
		C100.4,70.5,88.9,82,74.9,82z M132.9,172.6l-31.6-39.8l-2.5,1.9l7.8,10.5l1.9,63.7c-27.8-1.4-53.6-14.9-70.7-37L42,87.3H105
		l35.2,57.2l39.4-35.5l10.2,11.1l-43.5,52.6H132.9z M166.8,87.2l29.3-5.9l-10.9,29.6l-5.4-5.9l-9.6,8.3l-11.7,1.9L166.8,87.2z
		 M163.9,86.8l-8.3,28.2l-22.9-14l11.8-30.7L163.9,86.8z M139.2,78.2l-9.5,24.2l18.3,10.8l-21.7-7.3l11.1-28.4L139.2,78.2z
		 M123.4,107.2l4.4,1.4l-4.6,3.7l-5.2-7.8l5.6-3.5l1.5,1.4L123.4,107.2z"/>
</g>
</svg>
