<!-- Generator: Adobe Illustrator 19.0.0, SVG Export Plug-In  -->
<svg version="1.1"
	 xmlns="http://www.w3.org/2000/svg" xmlns:xlink="http://www.w3.org/1999/xlink" xmlns:a="http://ns.adobe.com/AdobeSVGViewerExtensions/3.0/"
	 x="0px" y="0px" width="226.8px" height="226.8px" viewBox="0 0 226.8 226.8" style="enable-background:new 0 0 226.8 226.8;"
	 xml:space="preserve">
<style type="text/css">
	.st0{fill:#F9F6F1;}
	.st1{fill:#005E9F;}
</style>
<defs>
</defs>
<g>
	<path class="st0" d="M113.4,0C50.8,0,0,50.8,0,113.4s50.8,113.4,113.4,113.4c62.6,0,113.4-50.8,113.4-113.4S176,0,113.4,0z"/>
	<path class="st1" d="M142.9,74.7c8.9,8,14.5,19.6,14.5,32.5c0,24.2-19.7,43.9-43.9,43.9c-24.2,0-43.9-19.7-43.9-43.9
		c0-12.9,5.6-24.4,14.5-32.5c-19.4,7-35.7,20.7-45.9,38.4c15,26,43.1,43.5,75.3,43.5c32.2,0,60.3-17.5,75.4-43.5
		C178.5,95.4,162.3,81.7,142.9,74.7z"/>
	<path class="st1" d="M113.4,138.5c17.3,0,31.3-14.1,31.3-31.3c0-17.3-14.1-31.3-31.3-31.3c-17.3,0-31.3,14.1-31.3,31.3
		C82.1,124.4,96.1,138.5,113.4,138.5z"/>
	<path class="st1" d="M113.4,0C50.8,0,0,50.8,0,113.4s50.8,113.4,113.4,113.4c62.6,0,113.4-50.8,113.4-113.4S176,0,113.4,0z
		 M113.4,169.2c-35.4,0-68.5-19.1-86.3-49.8l-3.7-6.3l3.7-6.3C44.9,76,78,56.9,113.4,56.9s68.5,19.1,86.3,49.8l3.7,6.3l-3.7,6.3
		C181.9,150.1,148.8,169.2,113.4,169.2z"/>
</g>
</svg>
