<!-- Generator: Adobe Illustrator 19.0.0, SVG Export Plug-In  -->
<svg version="1.1"
	 xmlns="http://www.w3.org/2000/svg" xmlns:xlink="http://www.w3.org/1999/xlink" xmlns:a="http://ns.adobe.com/AdobeSVGViewerExtensions/3.0/"
	 x="0px" y="0px" width="226.8px" height="226.8px" viewBox="0 0 226.8 226.8" style="enable-background:new 0 0 226.8 226.8;"
	 xml:space="preserve">
<style type="text/css">
	.st0{fill:#F9F6F1;}
	.st1{fill:#005E9F;}
</style>
<defs>
</defs>
<g>
	<path class="st0" d="M113.4,0C50.8,0,0,50.8,0,113.4s50.8,113.4,113.4,113.4S226.8,176,226.8,113.4S176,0,113.4,0L113.4,0z"/>
	<path class="st1" d="M113.4,0C50.8,0,0,50.8,0,113.4s50.8,113.4,113.4,113.4c62.6,0,113.4-50.8,113.4-113.4S176,0,113.4,0z
		 M127.5,36l-3.8,119.9h-20.5L99.3,36H127.5z M113.4,194.8c-9.3,0-16.9-7.5-16.9-16.9s7.5-16.9,16.9-16.9s16.9,7.5,16.9,16.9
		S122.7,194.8,113.4,194.8z"/>
</g>
</svg>
