<!-- Generator: Adobe Illustrator 19.0.0, SVG Export Plug-In  -->
<svg version="1.1"
	 xmlns="http://www.w3.org/2000/svg" xmlns:xlink="http://www.w3.org/1999/xlink" xmlns:a="http://ns.adobe.com/AdobeSVGViewerExtensions/3.0/"
	 x="0px" y="0px" width="226.8px" height="226.8px" viewBox="0 0 226.8 226.8" style="enable-background:new 0 0 226.8 226.8;"
	 xml:space="preserve">
<style type="text/css">
	.st0{fill:#FFFFFF;}
	.st1{fill:#1A191A;}
	.st2{fill:#C40233;}
</style>
<defs>
</defs>
<g>
	<circle class="st0" cx="113.4" cy="113.4" r="113.4"/>
	<path class="st1" d="M188,66.8l-10.6-10.6l-91.5,91.5l0,0l0,0v0l0,0l-11.3,15c-0.6-1.8-1.6-3.4-2.8-4.8c6.7-3.8,11.3-11,11.3-19.3
		c0-5.5-5.9-23.1-8.2-32.1c-2.6,1.8-2.7,4.6-3.1,6.7c-3.9-7.3-7.7-16.9-8.9-23.4c-15,14.1-24,36.6-24,48.8c0,8.3,4.6,15.5,11.3,19.3
		c-2.3,2.6-3.7,5.9-3.7,9.6c0,8,6.5,14.5,14.5,14.5c7,0,12.9-5,14.2-11.7l21.4-12L188,66.8z M60,157c-7.5,0-13.5-6.1-13.5-13.5
		c0-7.5,5.5-21.2,14.7-29.9c0.8,4,3.1,9.8,5.5,14.3c0.3-1.2,0.3-3,1.9-4.1c1.4,5.5,5,16.3,5,19.6C73.5,150.9,67.4,157,60,157z
		 M177.4,59.7l7.1,7.1l-88,88l-7.1-7.1L177.4,59.7z"/>
	<path class="st2" d="M113.4,0C50.9,0,0,50.9,0,113.4s50.9,113.4,113.4,113.4s113.4-50.9,113.4-113.4S175.9,0,113.4,0z M16.9,113.4
		c0-22.3,7.6-42.8,20.4-59.2l135.3,135.3c-16.4,12.7-36.9,20.4-59.2,20.4C60.2,209.9,16.9,166.6,16.9,113.4z M185,178L48.8,41.8
		c17.1-15.5,39.8-24.9,64.6-24.9c53.2,0,96.5,43.3,96.5,96.5C209.9,138.2,200.4,160.9,185,178z"/>
</g>
</svg>
