<!-- Generator: Adobe Illustrator 19.0.0, SVG Export Plug-In  -->
<svg version="1.1"
	 xmlns="http://www.w3.org/2000/svg" xmlns:xlink="http://www.w3.org/1999/xlink" xmlns:a="http://ns.adobe.com/AdobeSVGViewerExtensions/3.0/"
	 x="0px" y="0px" width="226.8px" height="226.8px" viewBox="0 0 226.8 226.8" style="enable-background:new 0 0 226.8 226.8;"
	 xml:space="preserve">
<style type="text/css">
	.st0{fill:#FFFFFF;}
	.st1{fill:#1A191A;}
	.st2{fill:#C40233;}
</style>
<defs>
</defs>
<g>
	<circle class="st0" cx="113.4" cy="113.4" r="113.4"/>
	<path class="st1" d="M113.4,38.7c-41.9,0-75.9,34.1-75.9,75.9c0,9,1.6,17.7,4.5,25.7l-10.6,45.8l11.7,5.8l14.1-26.2
		c13.9,15.3,33.9,24.9,56.2,24.9c41.9,0,75.9-34.1,75.9-75.9S155.3,38.7,113.4,38.7z M176.8,103.5l-33-3.6
		c6.9-4.6,11.5-12.5,11.5-21.4c0-7.2-3-13.7-7.7-18.4C162.7,69.6,173.6,85.2,176.8,103.5z M113.4,50.2c6.3,0,12.3,0.9,18.1,2.6
		c-0.6,0-1.2-0.1-1.9-0.1c-14.2,0-25.7,11.5-25.7,25.7c0,3.3,0.6,6.4,1.7,9.2L50,126.2c-0.7-3.7-1.1-7.6-1.1-11.5
		C49,79.1,77.9,50.2,113.4,50.2z M66.8,159.1l46.6-5.8l17.9,23.2c-5.7,1.6-11.7,2.5-17.9,2.5C95.1,179.1,78.6,171.4,66.8,159.1z
		 M145.4,170.6l-22.6-37.4L99.9,136l19-21.4h58.9v0C177.8,138.6,164.8,159.4,145.4,170.6z"/>
	<path class="st2" d="M113.4,0C50.9,0,0,50.9,0,113.4s50.9,113.4,113.4,113.4s113.4-50.9,113.4-113.4S175.9,0,113.4,0z M16.9,113.4
		c0-22.3,7.6-42.8,20.4-59.2l135.3,135.3c-16.4,12.7-36.9,20.4-59.2,20.4C60.2,209.9,16.9,166.6,16.9,113.4z M185,178L48.8,41.8
		c17.1-15.5,39.8-24.9,64.6-24.9c53.2,0,96.5,43.3,96.5,96.5C209.9,138.2,200.4,160.9,185,178z"/>
</g>
</svg>
