<!-- Generator: Adobe Illustrator 19.0.0, SVG Export Plug-In  -->
<svg version="1.1"
	 xmlns="http://www.w3.org/2000/svg" xmlns:xlink="http://www.w3.org/1999/xlink" xmlns:a="http://ns.adobe.com/AdobeSVGViewerExtensions/3.0/"
	 x="0px" y="0px" width="226.8px" height="226.8px" viewBox="0 0 226.8 226.8" style="enable-background:new 0 0 226.8 226.8;"
	 xml:space="preserve">
<style type="text/css">
	.st0{fill:#FFFFFF;}
	.st1{fill:#1A191A;}
	.st2{fill:#C40233;}
</style>
<defs>
</defs>
<g>
	<circle class="st0" cx="113.4" cy="113.4" r="113.4"/>
	<path class="st1" d="M138,75.6V46.2h-11.6v29.4H81.1v123.4h61.6V75.6H138z M100.5,193.7H86.8V180h13.7V193.7z M100.5,175.8H86.8
		v-13.7h13.7V175.8z M100.5,158H86.8v-13.7h13.7V158z M100.5,140.1H86.8v-13.7h13.7V140.1z M118.7,193.7H105V180h13.7V193.7z
		 M118.7,175.8H105v-13.7h13.7V175.8z M118.7,158H105v-13.7h13.7V158z M118.7,140.1H105v-13.7h13.7V140.1z M136.1,193.7h-13.7V180
		h13.7V193.7z M136.1,175.8h-13.7v-13.7h13.7V175.8z M136.1,158h-13.7v-13.7h13.7V158z M136.1,140.1h-13.7v-13.7h13.7V140.1z
		 M136.1,119.6H86.8V94.1h49.3V119.6z M117,66.8c-4.1-4.2-6.4-9.7-6.4-15.5c0-5.9,2.3-11.4,6.5-15.6l4,4c-3.1,3.1-4.8,7.2-4.8,11.6
		c0,4.3,1.7,8.4,4.7,11.5L117,66.8z M148.5,66.8l-4-4c3.1-3.1,4.8-7.2,4.8-11.6c0-4.4-1.7-8.5-4.8-11.6l4-4
		c4.2,4.2,6.5,9.7,6.5,15.6C154.9,57.2,152.6,62.7,148.5,66.8z M155.4,73.6l-4-4c4.8-4.9,7.5-11.4,7.5-18.3c0-7-2.7-13.5-7.6-18.4
		l4-4c6,6,9.3,14,9.3,22.4C164.5,59.7,161.2,67.6,155.4,73.6z M110.2,73.6c-5.9-6-9.2-13.9-9.2-22.3c0-8.5,3.3-16.4,9.3-22.4l4,4
		c-4.9,4.9-7.6,11.5-7.6,18.4c0,6.9,2.7,13.4,7.5,18.3L110.2,73.6z"/>
	<path class="st2" d="M113.4,0C50.9,0,0,50.9,0,113.4s50.9,113.4,113.4,113.4s113.4-50.9,113.4-113.4S175.9,0,113.4,0z M113.4,209.9
		c-53.2,0-96.5-43.3-96.5-96.5c0-22.3,7.6-42.8,20.4-59.2l135.3,135.3C156.2,202.2,135.7,209.9,113.4,209.9z M185,178L48.8,41.8
		c17.1-15.5,39.8-24.9,64.6-24.9c53.2,0,96.5,43.3,96.5,96.5C209.9,138.2,200.4,160.9,185,178z"/>
</g>
</svg>
