<!-- Generator: Adobe Illustrator 19.0.0, SVG Export Plug-In  -->
<svg version="1.1"
	 xmlns="http://www.w3.org/2000/svg" xmlns:xlink="http://www.w3.org/1999/xlink" xmlns:a="http://ns.adobe.com/AdobeSVGViewerExtensions/3.0/"
	 x="0px" y="0px" width="226.8px" height="226.8px" viewBox="0 0 226.8 226.8" style="enable-background:new 0 0 226.8 226.8;"
	 xml:space="preserve">
<style type="text/css">
	.st0{fill:#FFFFFF;}
	.st1{fill:#1A191A;}
	.st2{fill:#C40233;}
</style>
<defs>
</defs>
<g>
	<circle class="st0" cx="113.4" cy="113.4" r="113.4"/>
	<g>
		<path class="st1" d="M96.4,163.3c1.9-5.2,1.8-10.5,0.2-15.4L148.3,95c11.4,2.2,23-4.1,27-15.3c2.7-7.5,1.4-15.3-2.7-21.4l-4.7,13
			l-16,2.9l-10.5-12.4l4.7-13C139,50.8,133,56,130.3,63.5c-1.7,4.7-1.8,9.6-0.6,14.1l-52.6,53.9c-10.9-1.5-21.8,4.8-25.6,15.6
			c-2.7,7.5-1.4,15.3,2.7,21.4l4.7-13l16-2.9l10.5,12.4l-4.7,13C87.8,176,93.8,170.7,96.4,163.3z"/>
	</g>
	<path class="st2" d="M113.4,0C50.9,0,0,50.9,0,113.4s50.9,113.4,113.4,113.4s113.4-50.9,113.4-113.4S175.9,0,113.4,0z M16.9,113.4
		c0-22.3,7.6-42.8,20.4-59.2l135.3,135.3c-16.4,12.7-36.9,20.4-59.2,20.4C60.2,209.9,16.9,166.6,16.9,113.4z M185,178L48.8,41.8
		c17.1-15.5,39.8-24.9,64.6-24.9c53.2,0,96.5,43.3,96.5,96.5C209.9,138.2,200.4,160.9,185,178z"/>
</g>
</svg>
