<!-- Generator: Adobe Illustrator 19.0.0, SVG Export Plug-In  -->
<svg version="1.1"
	 xmlns="http://www.w3.org/2000/svg" xmlns:xlink="http://www.w3.org/1999/xlink" xmlns:a="http://ns.adobe.com/AdobeSVGViewerExtensions/3.0/"
	 x="0px" y="0px" width="226.8px" height="226.8px" viewBox="0 0 226.8 226.8" style="enable-background:new 0 0 226.8 226.8;"
	 xml:space="preserve">
<style type="text/css">
	.st0{fill:#FFFFFF;}
	.st1{fill:#1A191A;}
	.st2{fill:#C40233;}
</style>
<defs>
</defs>
<g>
	<circle class="st0" cx="113.4" cy="113.4" r="113.4"/>
	<g>
		<path class="st1" d="M167.3,52.4L66.1,153.5l18.4,18.4L185.7,70.7L167.3,52.4z M70.6,153.5l96.7-96.7l14,14l-96.7,96.7L70.6,153.5
			z"/>

			<rect x="59.3" y="164.2" transform="matrix(-0.7071 -0.7071 0.7071 -0.7071 6.1294 334.0708)" class="st1" width="26" height="3.1"/>

			<rect x="55.4" y="168.1" transform="matrix(-0.7071 -0.7071 0.7071 -0.7071 -3.1701 337.9226)" class="st1" width="26" height="3.1"/>

			<rect x="51.7" y="171.7" transform="matrix(-0.7071 -0.7071 0.7071 -0.7071 -12.0395 341.5978)" class="st1" width="26" height="3.1"/>
		<path class="st1" d="M53.2,159.8l1.7-2.9c0,0-0.1-0.2-0.5-0.6c-0.3-0.4-0.8-1-1.3-1.7c-1.1-1.5-2.5-3.8-3.1-6.4
			c-0.3-1.3-0.5-2.7-0.3-4.1c0.2-1.4,0.6-2.9,1.3-4.5c0.7-1.5,1.7-3.1,2.9-4.7c0.6-0.8,1.3-1.6,1.9-2.4c0.8-0.8,1.5-1.7,2.3-2.5
			l1.2-1.3l1.3-1.6c0.4-0.5,0.8-1.1,1.2-1.6c0.4-0.5,0.7-1.1,1.1-1.7c1.4-2.3,2.5-4.8,3-7.4c0.6-2.6,0.7-5.3,0.2-7.7
			c-0.4-2.4-1.3-4.5-2.3-6.3c-2.1-3.5-4.7-5.4-6.6-6.6c-0.9-0.6-1.7-0.9-2.2-1.2c-0.5-0.2-0.8-0.3-0.8-0.3s0.2,0.2,0.5,0.7
			c0.3,0.4,0.8,1.1,1.3,2c0.5,0.9,1.1,2,1.7,3.2c0.6,1.2,1.1,2.6,1.4,4.2c0.3,1.5,0.5,3.1,0.3,4.7c-0.1,1.6-0.6,3.2-1.3,4.9
			c-0.7,1.6-1.7,3.2-2.9,4.8c-0.3,0.4-0.6,0.8-0.9,1.2c-0.3,0.4-0.6,0.8-1,1.1l-1,1.1l-1.3,1.2l-0.5,0.5l-0.7,0.7
			c-0.4,0.5-0.9,0.9-1.3,1.4l-1.3,1.5c-0.4,0.5-0.8,1.1-1.2,1.6c-1.6,2.1-2.9,4.5-3.8,7.1c-0.9,2.6-1.3,5.3-1.2,7.9
			c0.1,1.3,0.3,2.6,0.7,3.7c0.4,1.2,0.8,2.3,1.3,3.2c1,1.9,2.3,3.5,3.5,4.6c1.2,1.2,2.4,2,3.4,2.6c1,0.6,1.8,1,2.4,1.2
			C52.8,159.7,53.2,159.8,53.2,159.8z"/>
	</g>
	<path class="st2" d="M113.4,0C50.9,0,0,50.9,0,113.4s50.9,113.4,113.4,113.4s113.4-50.9,113.4-113.4S175.9,0,113.4,0z M113.4,209.9
		c-53.2,0-96.5-43.3-96.5-96.5c0-22.3,7.6-42.8,20.4-59.2l135.3,135.3C156.2,202.2,135.7,209.9,113.4,209.9z M185,178L48.8,41.8
		c17.1-15.5,39.8-24.9,64.6-24.9c53.2,0,96.5,43.3,96.5,96.5C209.9,138.2,200.4,160.9,185,178z"/>
</g>
</svg>
