<!-- Generator: Adobe Illustrator 19.0.0, SVG Export Plug-In  -->
<svg version="1.1"
	 xmlns="http://www.w3.org/2000/svg" xmlns:xlink="http://www.w3.org/1999/xlink" xmlns:a="http://ns.adobe.com/AdobeSVGViewerExtensions/3.0/"
	 x="0px" y="0px" width="214.4px" height="214.4px" viewBox="0 0 214.4 214.4" style="enable-background:new 0 0 214.4 214.4;"
	 xml:space="preserve">
<style type="text/css">
	.st0{fill:#F9F6F1;}
	.st1{fill:#1A191A;}
	.st2{fill:#C40233;}
</style>
<defs>
</defs>
<g>
	<path class="st0" d="M107.2,0C48.1,0,0,48.1,0,107.2s48.1,107.2,107.2,107.2s107.2-48.1,107.2-107.2S166.3,0,107.2,0z"/>
	<polygon class="st1" points="156.5,36.4 94.9,52.8 76.4,64.6 42.9,115.1 44.5,167.1 50.4,170 62.1,161.7 66.4,132.2 67,119.4
		81.7,104.7 74.2,115 80.5,139.4 109.1,114.2 110.6,114.9 75.7,145 70.7,161.7 76,167.4 142.9,124.3 173.9,76.7 183.8,65 	"/>
	<polygon class="st1" points="87.5,162.1 101.7,152.9 102.3,166.4 94,172.2 90.3,169 	"/>
	<polygon class="st1" points="103.3,152 104.5,161.5 109.5,163.1 117.9,154.1 116.9,142.6 	"/>
	<path class="st2" d="M107.2,0C48.1,0,0,48.1,0,107.2s48.1,107.2,107.2,107.2s107.2-48.1,107.2-107.2S166.3,0,107.2,0z M16,107.2
		c0-21.1,7.2-40.5,19.2-56l127.9,127.9c-15.5,12.1-34.9,19.2-56,19.2C56.9,198.4,16,157.5,16,107.2z M174.9,168.3L46.1,39.5
		C62.3,24.9,83.7,16,107.2,16c50.3,0,91.2,40.9,91.2,91.2C198.4,130.7,189.5,152.1,174.9,168.3z"/>
</g>
</svg>
